# xmcd CD database file
#
# Track frame offsets:
#	150
#	10987
#	26400
#	39350
#	52325
#	64862
#	75400
#	87300
#	98037
#	111060
#	124230
#	136450
#	148100
#	160600
#	172555
#	183387
#	195625
#	207300
#
# Disc length: 2927 seconds
#
# Revision: 0
# Processed by: cddbd v1.5.2PL0 Copyright (c) Steve Scherf et al.
# Submitted via: CDex 1.70beta2
#
DISCID=ed0b6d12
DTITLE=Jim Reeves and Hank Williams - 18 Greatest Hits
DYEAR=1900
DGENRE=Country
TTITLE0=He'll Have to Go
TTITLE1=The Blizzard
TTITLE2=Have I Told You Lately That I Love You
TTITLE3=Distant Drums
TTITLE4=I Love You Because
TTITLE5=Scarlet Ribbons
TTITLE6=Welcome to My World
TTITLE7=Memories Are Made Of This
TTITLE8=Jambayala
TTITLE9=Hey Good Lookin'
TTITLE10=Your Cheatin' Heart
TTITLE11=A Mansion On The Hill
TTITLE12=I'm So Lonesome I Could Cry
TTITLE13=Take These Chains From My Heart
TTITLE14=I Can't Help It  (If I'm Still In Love With You)
TTITLE15=Cold, Cold Heart
TTITLE16=Kaw-liga
TTITLE17=Half As Much
EXTD=
EXTT0=
EXTT1=
EXTT2=
EXTT3=
EXTT4=
EXTT5=
EXTT6=
EXTT7=
EXTT8=
EXTT9=
EXTT10=
EXTT11=
EXTT12=
EXTT13=
EXTT14=
EXTT15=
EXTT16=
EXTT17=
PLAYORDER=
